<mxfile host="app.diagrams.net" agent="Mozilla/5.0 (Macintosh; Intel Mac OS X 10_15_7) AppleWebKit/537.36 (KHTML, like Gecko) Chrome/128.0.0.0 Whale/3.28.266.14 Safari/537.36" version="25.0.3">
  <diagram name="페이지-1" id="jsVYMSyafjEZiALjQ1WW">
    <mxGraphModel dx="2893" dy="2286" grid="1" gridSize="10" guides="1" tooltips="1" connect="1" arrows="1" fold="1" page="1" pageScale="1" pageWidth="827" pageHeight="1169" math="0" shadow="0">
      <root>
        <mxCell id="0" />
        <mxCell id="1" parent="0" />
        <mxCell id="x4dsajp8OmDqb7ecNxEP-85" value="" style="rounded=0;whiteSpace=wrap;html=1;fillColor=none;strokeColor=none;" vertex="1" parent="1">
          <mxGeometry x="-400" y="-160" width="1600" height="870" as="geometry" />
        </mxCell>
        <mxCell id="x4dsajp8OmDqb7ecNxEP-26" style="edgeStyle=orthogonalEdgeStyle;rounded=0;orthogonalLoop=1;jettySize=auto;html=1;entryX=0;entryY=0.5;entryDx=0;entryDy=0;endArrow=none;endFill=0;strokeWidth=2;" edge="1" parent="1" source="x4dsajp8OmDqb7ecNxEP-2" target="x4dsajp8OmDqb7ecNxEP-7">
          <mxGeometry relative="1" as="geometry">
            <Array as="points">
              <mxPoint x="200" y="320" />
              <mxPoint x="200" y="160" />
            </Array>
          </mxGeometry>
        </mxCell>
        <mxCell id="x4dsajp8OmDqb7ecNxEP-27" value="호스트&lt;br&gt;대상 그룹" style="edgeLabel;html=1;align=center;verticalAlign=middle;resizable=0;points=[];fontSize=18;" vertex="1" connectable="0" parent="x4dsajp8OmDqb7ecNxEP-26">
          <mxGeometry x="-0.005" y="-1" relative="1" as="geometry">
            <mxPoint as="offset" />
          </mxGeometry>
        </mxCell>
        <mxCell id="x4dsajp8OmDqb7ecNxEP-30" style="edgeStyle=orthogonalEdgeStyle;rounded=0;orthogonalLoop=1;jettySize=auto;html=1;exitX=0.5;exitY=1;exitDx=0;exitDy=0;entryX=0.5;entryY=0;entryDx=0;entryDy=0;endArrow=none;endFill=0;strokeWidth=2;" edge="1" parent="1" source="x4dsajp8OmDqb7ecNxEP-2" target="x4dsajp8OmDqb7ecNxEP-3">
          <mxGeometry relative="1" as="geometry" />
        </mxCell>
        <mxCell id="x4dsajp8OmDqb7ecNxEP-31" value="그룹 포함" style="edgeLabel;html=1;align=center;verticalAlign=middle;resizable=0;points=[];fontSize=18;" vertex="1" connectable="0" parent="x4dsajp8OmDqb7ecNxEP-30">
          <mxGeometry x="-0.0265" y="2" relative="1" as="geometry">
            <mxPoint as="offset" />
          </mxGeometry>
        </mxCell>
        <mxCell id="x4dsajp8OmDqb7ecNxEP-28" style="edgeStyle=orthogonalEdgeStyle;rounded=0;orthogonalLoop=1;jettySize=auto;html=1;exitX=1;exitY=0.5;exitDx=0;exitDy=0;entryX=0;entryY=0.75;entryDx=0;entryDy=0;endArrow=none;endFill=0;strokeWidth=2;dashed=1;" edge="1" parent="1" source="x4dsajp8OmDqb7ecNxEP-3" target="x4dsajp8OmDqb7ecNxEP-7">
          <mxGeometry relative="1" as="geometry">
            <Array as="points">
              <mxPoint x="270" y="520" />
              <mxPoint x="270" y="180" />
            </Array>
          </mxGeometry>
        </mxCell>
        <mxCell id="x4dsajp8OmDqb7ecNxEP-29" value="인벤토리의 일부로&lt;br&gt;작업 범위 제한" style="edgeLabel;html=1;align=center;verticalAlign=middle;resizable=0;points=[];fontSize=18;" vertex="1" connectable="0" parent="x4dsajp8OmDqb7ecNxEP-28">
          <mxGeometry x="0.0046" y="1" relative="1" as="geometry">
            <mxPoint as="offset" />
          </mxGeometry>
        </mxCell>
        <mxCell id="x4dsajp8OmDqb7ecNxEP-17" style="edgeStyle=orthogonalEdgeStyle;rounded=0;orthogonalLoop=1;jettySize=auto;html=1;entryX=0.5;entryY=0;entryDx=0;entryDy=0;endArrow=none;endFill=0;strokeWidth=2;" edge="1" parent="1" source="x4dsajp8OmDqb7ecNxEP-4" target="x4dsajp8OmDqb7ecNxEP-10">
          <mxGeometry relative="1" as="geometry" />
        </mxCell>
        <mxCell id="x4dsajp8OmDqb7ecNxEP-18" value="플레이북&lt;br&gt;포함" style="edgeLabel;html=1;align=center;verticalAlign=middle;resizable=0;points=[];fontSize=18;" vertex="1" connectable="0" parent="x4dsajp8OmDqb7ecNxEP-17">
          <mxGeometry x="-0.1049" y="1" relative="1" as="geometry">
            <mxPoint as="offset" />
          </mxGeometry>
        </mxCell>
        <mxCell id="x4dsajp8OmDqb7ecNxEP-4" value="프로젝트&lt;br&gt;Git 저장소" style="rounded=0;whiteSpace=wrap;html=1;fontSize=25;fillColor=#ffe6cc;strokeColor=#000000;" vertex="1" parent="1">
          <mxGeometry x="640" y="-120" width="160" height="80" as="geometry" />
        </mxCell>
        <mxCell id="x4dsajp8OmDqb7ecNxEP-15" style="edgeStyle=orthogonalEdgeStyle;rounded=0;orthogonalLoop=1;jettySize=auto;html=1;entryX=0;entryY=0.5;entryDx=0;entryDy=0;endArrow=none;endFill=0;strokeWidth=2;" edge="1" parent="1" source="x4dsajp8OmDqb7ecNxEP-5" target="x4dsajp8OmDqb7ecNxEP-4">
          <mxGeometry relative="1" as="geometry" />
        </mxCell>
        <mxCell id="x4dsajp8OmDqb7ecNxEP-16" value="플레이북&lt;br&gt;소스" style="edgeLabel;html=1;align=center;verticalAlign=middle;resizable=0;points=[];fontSize=18;" vertex="1" connectable="0" parent="x4dsajp8OmDqb7ecNxEP-15">
          <mxGeometry x="0.0297" y="-2" relative="1" as="geometry">
            <mxPoint as="offset" />
          </mxGeometry>
        </mxCell>
        <mxCell id="x4dsajp8OmDqb7ecNxEP-5" value="프로젝트" style="rounded=0;whiteSpace=wrap;html=1;fontSize=25;fillColor=#dae8fc;strokeColor=#000000;" vertex="1" parent="1">
          <mxGeometry x="320" y="-40" width="160" height="80" as="geometry" />
        </mxCell>
        <mxCell id="x4dsajp8OmDqb7ecNxEP-24" style="edgeStyle=orthogonalEdgeStyle;rounded=0;orthogonalLoop=1;jettySize=auto;html=1;exitX=1;exitY=0.5;exitDx=0;exitDy=0;entryX=0;entryY=0.25;entryDx=0;entryDy=0;endArrow=none;endFill=0;strokeWidth=2;" edge="1" parent="1" source="x4dsajp8OmDqb7ecNxEP-6" target="x4dsajp8OmDqb7ecNxEP-7">
          <mxGeometry relative="1" as="geometry">
            <Array as="points">
              <mxPoint x="200" y="40" />
              <mxPoint x="200" y="140" />
            </Array>
          </mxGeometry>
        </mxCell>
        <mxCell id="x4dsajp8OmDqb7ecNxEP-25" value="일정에&lt;br&gt;맞춰 실행" style="edgeLabel;html=1;align=center;verticalAlign=middle;resizable=0;points=[];fontSize=18;" vertex="1" connectable="0" parent="x4dsajp8OmDqb7ecNxEP-24">
          <mxGeometry x="-0.0111" y="-1" relative="1" as="geometry">
            <mxPoint x="1" y="-24" as="offset" />
          </mxGeometry>
        </mxCell>
        <mxCell id="x4dsajp8OmDqb7ecNxEP-6" value="일정" style="rounded=0;whiteSpace=wrap;html=1;fontSize=25;fillColor=#dae8fc;strokeColor=#000000;" vertex="1" parent="1">
          <mxGeometry x="-40" width="160" height="80" as="geometry" />
        </mxCell>
        <mxCell id="x4dsajp8OmDqb7ecNxEP-22" style="edgeStyle=orthogonalEdgeStyle;rounded=0;orthogonalLoop=1;jettySize=auto;html=1;entryX=0.5;entryY=1;entryDx=0;entryDy=0;endArrow=none;endFill=0;strokeWidth=2;" edge="1" parent="1" source="x4dsajp8OmDqb7ecNxEP-7" target="x4dsajp8OmDqb7ecNxEP-5">
          <mxGeometry relative="1" as="geometry" />
        </mxCell>
        <mxCell id="x4dsajp8OmDqb7ecNxEP-23" value="작업 템플릿을 가짐" style="edgeLabel;html=1;align=center;verticalAlign=middle;resizable=0;points=[];fontSize=18;" vertex="1" connectable="0" parent="x4dsajp8OmDqb7ecNxEP-22">
          <mxGeometry x="-0.0382" y="-1" relative="1" as="geometry">
            <mxPoint as="offset" />
          </mxGeometry>
        </mxCell>
        <mxCell id="x4dsajp8OmDqb7ecNxEP-32" style="edgeStyle=orthogonalEdgeStyle;rounded=0;orthogonalLoop=1;jettySize=auto;html=1;entryX=0.5;entryY=0;entryDx=0;entryDy=0;endArrow=none;endFill=0;strokeWidth=2;" edge="1" parent="1" source="x4dsajp8OmDqb7ecNxEP-7" target="x4dsajp8OmDqb7ecNxEP-12">
          <mxGeometry relative="1" as="geometry" />
        </mxCell>
        <mxCell id="x4dsajp8OmDqb7ecNxEP-33" value="&amp;nbsp;템플릿&amp;nbsp;&lt;br&gt;인스턴스" style="edgeLabel;html=1;align=center;verticalAlign=middle;resizable=0;points=[];fontSize=18;" vertex="1" connectable="0" parent="x4dsajp8OmDqb7ecNxEP-32">
          <mxGeometry x="0.0133" relative="1" as="geometry">
            <mxPoint as="offset" />
          </mxGeometry>
        </mxCell>
        <mxCell id="x4dsajp8OmDqb7ecNxEP-52" style="edgeStyle=orthogonalEdgeStyle;rounded=0;orthogonalLoop=1;jettySize=auto;html=1;exitX=0.75;exitY=1;exitDx=0;exitDy=0;entryX=0.25;entryY=0;entryDx=0;entryDy=0;endArrow=none;endFill=0;startArrow=none;startFill=0;strokeWidth=2;" edge="1" parent="1" source="x4dsajp8OmDqb7ecNxEP-7" target="x4dsajp8OmDqb7ecNxEP-11">
          <mxGeometry relative="1" as="geometry" />
        </mxCell>
        <mxCell id="x4dsajp8OmDqb7ecNxEP-69" value="&amp;nbsp;인증 제공&amp;nbsp;" style="edgeLabel;html=1;align=center;verticalAlign=middle;resizable=0;points=[];fontSize=18;" vertex="1" connectable="0" parent="x4dsajp8OmDqb7ecNxEP-52">
          <mxGeometry x="0.0075" y="1" relative="1" as="geometry">
            <mxPoint as="offset" />
          </mxGeometry>
        </mxCell>
        <mxCell id="x4dsajp8OmDqb7ecNxEP-41" style="edgeStyle=orthogonalEdgeStyle;rounded=0;orthogonalLoop=1;jettySize=auto;html=1;entryX=0.5;entryY=0;entryDx=0;entryDy=0;endArrow=none;endFill=0;strokeWidth=2;" edge="1" parent="1" source="x4dsajp8OmDqb7ecNxEP-8" target="x4dsajp8OmDqb7ecNxEP-14">
          <mxGeometry relative="1" as="geometry" />
        </mxCell>
        <mxCell id="x4dsajp8OmDqb7ecNxEP-8" value="역할&lt;br&gt;Git 저장소" style="rounded=0;whiteSpace=wrap;html=1;fontSize=25;fillColor=#ffe6cc;strokeColor=#000000;" vertex="1" parent="1">
          <mxGeometry x="1000" y="120" width="160" height="80" as="geometry" />
        </mxCell>
        <mxCell id="x4dsajp8OmDqb7ecNxEP-36" style="edgeStyle=orthogonalEdgeStyle;rounded=0;orthogonalLoop=1;jettySize=auto;html=1;entryX=0;entryY=0.5;entryDx=0;entryDy=0;exitX=0.5;exitY=0;exitDx=0;exitDy=0;endArrow=none;endFill=0;strokeWidth=2;" edge="1" parent="1" source="x4dsajp8OmDqb7ecNxEP-9" target="x4dsajp8OmDqb7ecNxEP-2">
          <mxGeometry relative="1" as="geometry" />
        </mxCell>
        <mxCell id="x4dsajp8OmDqb7ecNxEP-38" value="&amp;nbsp;호스트 포함&amp;nbsp;" style="edgeLabel;html=1;align=center;verticalAlign=middle;resizable=0;points=[];fontSize=18;" vertex="1" connectable="0" parent="x4dsajp8OmDqb7ecNxEP-36">
          <mxGeometry x="0.2106" y="-3" relative="1" as="geometry">
            <mxPoint x="2" y="-3" as="offset" />
          </mxGeometry>
        </mxCell>
        <mxCell id="x4dsajp8OmDqb7ecNxEP-39" style="edgeStyle=orthogonalEdgeStyle;rounded=0;orthogonalLoop=1;jettySize=auto;html=1;entryX=0;entryY=0.5;entryDx=0;entryDy=0;exitX=0.75;exitY=1;exitDx=0;exitDy=0;endArrow=none;endFill=0;strokeWidth=2;" edge="1" parent="1" source="x4dsajp8OmDqb7ecNxEP-9" target="x4dsajp8OmDqb7ecNxEP-3">
          <mxGeometry relative="1" as="geometry" />
        </mxCell>
        <mxCell id="x4dsajp8OmDqb7ecNxEP-40" value="&amp;nbsp;그룹의 맴버&amp;nbsp;" style="edgeLabel;html=1;align=center;verticalAlign=middle;resizable=0;points=[];fontSize=18;" vertex="1" connectable="0" parent="x4dsajp8OmDqb7ecNxEP-39">
          <mxGeometry x="0.1744" y="-3" relative="1" as="geometry">
            <mxPoint as="offset" />
          </mxGeometry>
        </mxCell>
        <mxCell id="x4dsajp8OmDqb7ecNxEP-50" style="edgeStyle=orthogonalEdgeStyle;rounded=0;orthogonalLoop=1;jettySize=auto;html=1;exitX=0.25;exitY=1;exitDx=0;exitDy=0;entryX=0.5;entryY=1;entryDx=0;entryDy=0;endArrow=none;endFill=0;strokeWidth=2;" edge="1" parent="1" source="x4dsajp8OmDqb7ecNxEP-9" target="x4dsajp8OmDqb7ecNxEP-12">
          <mxGeometry relative="1" as="geometry">
            <Array as="points">
              <mxPoint x="-310" y="630" />
              <mxPoint x="510" y="630" />
            </Array>
          </mxGeometry>
        </mxCell>
        <mxCell id="x4dsajp8OmDqb7ecNxEP-51" value="&amp;nbsp;호스트에&amp;nbsp;&lt;br&gt;&amp;nbsp;플레이북 적용&amp;nbsp;" style="edgeLabel;html=1;align=center;verticalAlign=middle;resizable=0;points=[];fontSize=18;" vertex="1" connectable="0" parent="x4dsajp8OmDqb7ecNxEP-50">
          <mxGeometry x="-0.0129" y="3" relative="1" as="geometry">
            <mxPoint as="offset" />
          </mxGeometry>
        </mxCell>
        <mxCell id="x4dsajp8OmDqb7ecNxEP-19" style="edgeStyle=orthogonalEdgeStyle;rounded=0;orthogonalLoop=1;jettySize=auto;html=1;entryX=1;entryY=0.5;entryDx=0;entryDy=0;endArrow=none;endFill=0;" edge="1" parent="1" source="x4dsajp8OmDqb7ecNxEP-10" target="x4dsajp8OmDqb7ecNxEP-7">
          <mxGeometry relative="1" as="geometry" />
        </mxCell>
        <mxCell id="x4dsajp8OmDqb7ecNxEP-21" value="&amp;nbsp;플레이북&amp;nbsp;&lt;br&gt;적용" style="edgeLabel;html=1;align=center;verticalAlign=middle;resizable=0;points=[];fontSize=15;" vertex="1" connectable="0" parent="x4dsajp8OmDqb7ecNxEP-19">
          <mxGeometry x="-0.0506" y="2" relative="1" as="geometry">
            <mxPoint as="offset" />
          </mxGeometry>
        </mxCell>
        <mxCell id="x4dsajp8OmDqb7ecNxEP-34" style="edgeStyle=orthogonalEdgeStyle;rounded=0;orthogonalLoop=1;jettySize=auto;html=1;entryX=0;entryY=0.5;entryDx=0;entryDy=0;endArrow=none;endFill=0;strokeWidth=2;" edge="1" parent="1" source="x4dsajp8OmDqb7ecNxEP-10" target="x4dsajp8OmDqb7ecNxEP-8">
          <mxGeometry relative="1" as="geometry">
            <Array as="points">
              <mxPoint x="830" y="160" />
              <mxPoint x="830" y="160" />
            </Array>
          </mxGeometry>
        </mxCell>
        <mxCell id="x4dsajp8OmDqb7ecNxEP-35" value="&amp;nbsp;역할 포함&amp;nbsp;" style="edgeLabel;html=1;align=center;verticalAlign=middle;resizable=0;points=[];fontSize=18;" vertex="1" connectable="0" parent="x4dsajp8OmDqb7ecNxEP-34">
          <mxGeometry x="-0.0121" relative="1" as="geometry">
            <mxPoint as="offset" />
          </mxGeometry>
        </mxCell>
        <mxCell id="x4dsajp8OmDqb7ecNxEP-10" value="플레이북" style="rounded=0;whiteSpace=wrap;html=1;fontSize=25;fillColor=#d5e8d4;strokeColor=#000000;" vertex="1" parent="1">
          <mxGeometry x="640" y="120" width="160" height="80" as="geometry" />
        </mxCell>
        <mxCell id="x4dsajp8OmDqb7ecNxEP-54" style="edgeStyle=orthogonalEdgeStyle;rounded=0;orthogonalLoop=1;jettySize=auto;html=1;entryX=0;entryY=0.75;entryDx=0;entryDy=0;endArrow=none;endFill=0;strokeWidth=2;" edge="1" parent="1" source="x4dsajp8OmDqb7ecNxEP-11" target="x4dsajp8OmDqb7ecNxEP-8">
          <mxGeometry relative="1" as="geometry" />
        </mxCell>
        <mxCell id="x4dsajp8OmDqb7ecNxEP-70" value="&amp;nbsp;접근 권한 제공&amp;nbsp;" style="edgeLabel;html=1;align=center;verticalAlign=middle;resizable=0;points=[];fontSize=18;" vertex="1" connectable="0" parent="x4dsajp8OmDqb7ecNxEP-54">
          <mxGeometry x="0.0163" y="-3" relative="1" as="geometry">
            <mxPoint x="-3" y="-32" as="offset" />
          </mxGeometry>
        </mxCell>
        <mxCell id="x4dsajp8OmDqb7ecNxEP-11" value="인증 정보" style="rounded=0;whiteSpace=wrap;html=1;fontSize=25;fillColor=#dae8fc;strokeColor=#000000;" vertex="1" parent="1">
          <mxGeometry x="720" y="330" width="160" height="80" as="geometry" />
        </mxCell>
        <mxCell id="x4dsajp8OmDqb7ecNxEP-12" value="인스턴스" style="rounded=0;whiteSpace=wrap;html=1;fontSize=25;fillColor=#e1d5e7;strokeColor=#000000;" vertex="1" parent="1">
          <mxGeometry x="430" y="400" width="160" height="80" as="geometry" />
        </mxCell>
        <mxCell id="x4dsajp8OmDqb7ecNxEP-13" value="태스크" style="rounded=0;whiteSpace=wrap;html=1;fontSize=25;fillColor=#d5e8d4;strokeColor=#000000;" vertex="1" parent="1">
          <mxGeometry x="1000" y="390" width="160" height="80" as="geometry" />
        </mxCell>
        <mxCell id="x4dsajp8OmDqb7ecNxEP-42" style="edgeStyle=orthogonalEdgeStyle;rounded=0;orthogonalLoop=1;jettySize=auto;html=1;entryX=0.5;entryY=0;entryDx=0;entryDy=0;endArrow=none;endFill=0;strokeWidth=2;" edge="1" parent="1" source="x4dsajp8OmDqb7ecNxEP-14" target="x4dsajp8OmDqb7ecNxEP-13">
          <mxGeometry relative="1" as="geometry" />
        </mxCell>
        <mxCell id="x4dsajp8OmDqb7ecNxEP-14" value="역할" style="rounded=0;whiteSpace=wrap;html=1;fontSize=25;fillColor=#d5e8d4;strokeColor=#000000;" vertex="1" parent="1">
          <mxGeometry x="1000" y="260" width="160" height="80" as="geometry" />
        </mxCell>
        <mxCell id="x4dsajp8OmDqb7ecNxEP-53" style="edgeStyle=orthogonalEdgeStyle;rounded=0;orthogonalLoop=1;jettySize=auto;html=1;exitX=0.75;exitY=0;exitDx=0;exitDy=0;entryX=1.002;entryY=0.4;entryDx=0;entryDy=0;entryPerimeter=0;endArrow=none;endFill=0;strokeWidth=2;" edge="1" parent="1" source="x4dsajp8OmDqb7ecNxEP-11" target="x4dsajp8OmDqb7ecNxEP-4">
          <mxGeometry relative="1" as="geometry" />
        </mxCell>
        <mxCell id="x4dsajp8OmDqb7ecNxEP-71" value="&amp;nbsp;접근 권한 제공&amp;nbsp;" style="edgeLabel;html=1;align=center;verticalAlign=middle;resizable=0;points=[];fontSize=18;" vertex="1" connectable="0" parent="x4dsajp8OmDqb7ecNxEP-53">
          <mxGeometry x="0.6133" y="-2" relative="1" as="geometry">
            <mxPoint y="19" as="offset" />
          </mxGeometry>
        </mxCell>
        <mxCell id="x4dsajp8OmDqb7ecNxEP-57" value="" style="group;strokeColor=#000000;fontSize=25;" vertex="1" connectable="0" parent="1">
          <mxGeometry x="-360" y="390" width="160" height="80" as="geometry" />
        </mxCell>
        <mxCell id="x4dsajp8OmDqb7ecNxEP-9" value="&lt;font style=&quot;font-size: 25px;&quot;&gt;호스트&lt;/font&gt;" style="rounded=0;whiteSpace=wrap;html=1;fontSize=20;fillColor=#e1d5e7;strokeColor=#9673a6;" vertex="1" parent="x4dsajp8OmDqb7ecNxEP-57">
          <mxGeometry width="160" height="80" as="geometry" />
        </mxCell>
        <mxCell id="x4dsajp8OmDqb7ecNxEP-56" value="[변수]" style="rounded=0;whiteSpace=wrap;html=1;fontSize=16;fillColor=none;strokeColor=none;" vertex="1" parent="x4dsajp8OmDqb7ecNxEP-57">
          <mxGeometry x="110" y="50" width="50" height="30" as="geometry" />
        </mxCell>
        <mxCell id="x4dsajp8OmDqb7ecNxEP-59" value="" style="group;fillColor=#dae8fc;strokeColor=#000000;fontSize=25;" vertex="1" connectable="0" parent="1">
          <mxGeometry x="-40" y="280" width="160" height="80" as="geometry" />
        </mxCell>
        <mxCell id="x4dsajp8OmDqb7ecNxEP-2" value="&lt;font style=&quot;font-size: 25px;&quot;&gt;인벤토리&lt;/font&gt;" style="rounded=0;whiteSpace=wrap;html=1;fontSize=20;fillColor=#dae8fc;strokeColor=#6c8ebf;" vertex="1" parent="x4dsajp8OmDqb7ecNxEP-59">
          <mxGeometry width="160" height="80" as="geometry" />
        </mxCell>
        <mxCell id="x4dsajp8OmDqb7ecNxEP-58" value="[변수]" style="rounded=0;whiteSpace=wrap;html=1;fontSize=16;fillColor=none;strokeColor=none;" vertex="1" parent="x4dsajp8OmDqb7ecNxEP-59">
          <mxGeometry x="110" y="50" width="50" height="30" as="geometry" />
        </mxCell>
        <mxCell id="x4dsajp8OmDqb7ecNxEP-61" value="ㅇ" style="group;fillColor=#dae8fc;strokeColor=#000000;fontSize=25;" vertex="1" connectable="0" parent="1">
          <mxGeometry x="-40" y="480" width="160" height="80" as="geometry" />
        </mxCell>
        <mxCell id="x4dsajp8OmDqb7ecNxEP-3" value="&lt;font style=&quot;font-size: 25px;&quot;&gt;인벤토리&lt;br&gt;그룹&lt;/font&gt;" style="rounded=0;whiteSpace=wrap;html=1;fontSize=20;fillColor=#dae8fc;strokeColor=#6c8ebf;" vertex="1" parent="x4dsajp8OmDqb7ecNxEP-61">
          <mxGeometry width="160" height="80" as="geometry" />
        </mxCell>
        <mxCell id="x4dsajp8OmDqb7ecNxEP-60" value="[변수]" style="rounded=0;whiteSpace=wrap;html=1;fontSize=16;fillColor=none;strokeColor=none;" vertex="1" parent="x4dsajp8OmDqb7ecNxEP-61">
          <mxGeometry x="110" y="50" width="50" height="30" as="geometry" />
        </mxCell>
        <mxCell id="x4dsajp8OmDqb7ecNxEP-64" value="" style="group;fillColor=none;strokeColor=#000000;fontSize=25;" vertex="1" connectable="0" parent="1">
          <mxGeometry x="320" y="120" width="160" height="80" as="geometry" />
        </mxCell>
        <mxCell id="x4dsajp8OmDqb7ecNxEP-67" value="" style="group" vertex="1" connectable="0" parent="x4dsajp8OmDqb7ecNxEP-64">
          <mxGeometry width="160" height="80" as="geometry" />
        </mxCell>
        <mxCell id="x4dsajp8OmDqb7ecNxEP-7" value="&lt;font style=&quot;font-size: 25px;&quot;&gt;템플릿&lt;/font&gt;" style="rounded=0;whiteSpace=wrap;html=1;fontSize=20;fillColor=#dae8fc;strokeColor=#6c8ebf;" vertex="1" parent="x4dsajp8OmDqb7ecNxEP-67">
          <mxGeometry width="160" height="80" as="geometry" />
        </mxCell>
        <mxCell id="x4dsajp8OmDqb7ecNxEP-63" value="[변수]" style="rounded=0;whiteSpace=wrap;html=1;fontSize=16;fillColor=none;strokeColor=none;" vertex="1" parent="x4dsajp8OmDqb7ecNxEP-67">
          <mxGeometry x="110" y="50" width="50" height="30" as="geometry" />
        </mxCell>
        <mxCell id="x4dsajp8OmDqb7ecNxEP-80" value="" style="group;strokeColor=none;" vertex="1" connectable="0" parent="1">
          <mxGeometry x="830" y="500" width="280" height="30" as="geometry" />
        </mxCell>
        <mxCell id="x4dsajp8OmDqb7ecNxEP-72" value="" style="whiteSpace=wrap;html=1;aspect=fixed;fillColor=#d5e8d4;strokeColor=#82b366;" vertex="1" parent="x4dsajp8OmDqb7ecNxEP-80">
          <mxGeometry width="30" height="30" as="geometry" />
        </mxCell>
        <mxCell id="x4dsajp8OmDqb7ecNxEP-76" value="플레이북과 역할 소스 코드" style="text;html=1;align=left;verticalAlign=middle;whiteSpace=wrap;rounded=0;fontSize=17;" vertex="1" parent="x4dsajp8OmDqb7ecNxEP-80">
          <mxGeometry x="40" width="240" height="30" as="geometry" />
        </mxCell>
        <mxCell id="x4dsajp8OmDqb7ecNxEP-81" value="" style="group;strokeColor=none;fontSize=13;" vertex="1" connectable="0" parent="1">
          <mxGeometry x="830" y="550" width="330" height="30" as="geometry" />
        </mxCell>
        <mxCell id="x4dsajp8OmDqb7ecNxEP-73" value="" style="whiteSpace=wrap;html=1;aspect=fixed;fillColor=#ffe6cc;strokeColor=#d79b00;" vertex="1" parent="x4dsajp8OmDqb7ecNxEP-81">
          <mxGeometry width="29.11764705882353" height="29.11764705882353" as="geometry" />
        </mxCell>
        <mxCell id="x4dsajp8OmDqb7ecNxEP-77" value="플레이북과 역할을 위한 소스 코드 저장소" style="text;html=1;align=left;verticalAlign=middle;whiteSpace=wrap;rounded=0;fontSize=17;" vertex="1" parent="x4dsajp8OmDqb7ecNxEP-81">
          <mxGeometry x="38.8235294117647" width="291.1764705882353" height="30" as="geometry" />
        </mxCell>
        <mxCell id="x4dsajp8OmDqb7ecNxEP-82" value="" style="group;strokeColor=none;fontSize=13;" vertex="1" connectable="0" parent="1">
          <mxGeometry x="830" y="600" width="280" height="30" as="geometry" />
        </mxCell>
        <mxCell id="x4dsajp8OmDqb7ecNxEP-74" value="" style="whiteSpace=wrap;html=1;aspect=fixed;fillColor=#dae8fc;strokeColor=#6c8ebf;" vertex="1" parent="x4dsajp8OmDqb7ecNxEP-82">
          <mxGeometry width="30" height="30" as="geometry" />
        </mxCell>
        <mxCell id="x4dsajp8OmDqb7ecNxEP-78" value="Ansible/AWX 에서 구성됨" style="text;html=1;align=left;verticalAlign=middle;whiteSpace=wrap;rounded=0;fontSize=17;strokeColor=none;" vertex="1" parent="x4dsajp8OmDqb7ecNxEP-82">
          <mxGeometry x="40" width="240" height="30" as="geometry" />
        </mxCell>
        <mxCell id="x4dsajp8OmDqb7ecNxEP-83" value="" style="group;strokeColor=none;fontSize=13;" vertex="1" connectable="0" parent="1">
          <mxGeometry x="830" y="650" width="280" height="30" as="geometry" />
        </mxCell>
        <mxCell id="x4dsajp8OmDqb7ecNxEP-75" value="" style="whiteSpace=wrap;html=1;aspect=fixed;fillColor=#e1d5e7;strokeColor=#9673a6;" vertex="1" parent="x4dsajp8OmDqb7ecNxEP-83">
          <mxGeometry width="30" height="30" as="geometry" />
        </mxCell>
        <mxCell id="x4dsajp8OmDqb7ecNxEP-79" value="실제 인프라 환경" style="text;html=1;align=left;verticalAlign=middle;whiteSpace=wrap;rounded=0;fontSize=17;" vertex="1" parent="x4dsajp8OmDqb7ecNxEP-83">
          <mxGeometry x="40" width="240" height="30" as="geometry" />
        </mxCell>
      </root>
    </mxGraphModel>
  </diagram>
</mxfile>
